<svg id="Layer_1" data-name="Layer 1" xmlns="http://www.w3.org/2000/svg" viewBox="0 0 348.74 148.1"><defs><style>.cls-1{fill:#fa54f8;}.cls-2{fill:#fa55f8;}</style></defs><path class="cls-1" d="M174.44,1.19a33.26,33.26,0,1,0,32.92,34.6A33.3,33.3,0,0,0,174.44,1.19ZM153.09,12.08a29.32,29.32,0,0,1,12.62-7,30.63,30.63,0,0,0-5.59,9.67c-.17.44-.3.84-1,.64a30.49,30.49,0,0,1-5.9-2.31C152.69,12.75,152.6,12.53,153.09,12.08ZM143.46,32.4a31,31,0,0,1,6.3-16.68c.66-.88,1.19-1.14,2.21-.49a22.37,22.37,0,0,0,6.11,2.46c.71.18.95.4.73,1.17a52.81,52.81,0,0,0-1.92,13.29c0,.83-.27,1.06-1.08,1-1.91,0-3.83,0-5.74,0h-5.75C143.79,33.18,143.4,33.23,143.46,32.4Zm6.8,21.34a30,30,0,0,1-6.39-14c-.16-.9-.13-1.84-.34-2.72-.25-1.07.05-1.37,1.14-1.32,1.82.09,3.66,0,5.49,0s3.75,0,5.62,0c.75,0,1.09.12,1.11,1a53.29,53.29,0,0,0,1.93,13.4c.15.56.16.92-.53,1.1a23.31,23.31,0,0,0-7,3C150.68,54.56,150.51,54.05,150.26,53.74Zm2.37,2.61a24.39,24.39,0,0,1,6.62-2.81c.69-.22.74.34.89.74a31.42,31.42,0,0,0,5.57,9.57A28.83,28.83,0,0,1,152.63,56.35Zm19.13,8.38a11.69,11.69,0,0,1-5.07-3.92,27.46,27.46,0,0,1-3.89-7c-.31-.75-.27-1.06.66-1.23,2.83-.54,5.69-.63,8.55-.9.68-.07.84.27.83.88,0,1.92,0,3.83,0,5.75s0,3.75,0,5.62C172.88,64.93,172.57,65,171.76,64.73Zm1.07-22.28c0,1.91,0,3.82,0,5.73,0,.72-.15,1-.95,1a54.11,54.11,0,0,0-9.15,1c-.81.17-1.21,0-1.47-.9a67.87,67.87,0,0,1-1.89-12.52c-.07-.8.18-1.08,1-1.07,3.78,0,7.57,0,11.35,0,.92,0,1.11.32,1.09,1.16C172.8,38.71,172.83,40.58,172.83,42.45Zm0-16c0,1.91,0,3.83,0,5.74,0,.76-.24,1-1,1-3.82,0-7.65,0-11.47,0-.76,0-1-.21-1-1a70.12,70.12,0,0,1,1.82-12.4c.25-1,.72-1.25,1.67-1.05a48.7,48.7,0,0,0,8.77.92c.88,0,1.25.21,1.21,1.18C172.77,22.72,172.83,24.59,172.83,26.46Zm0-19.83c0,1.33,0,2.67,0,4,0,1.87,0,3.75,0,5.62,0,.69-.18,1-.92.93a76.16,76.16,0,0,1-8.79-.94c-.45-.09-.72-.17-.52-.68,1.61-4,3.54-7.84,7.23-10.4.84-.58,1.88-1.43,2.79-1C173.22,4.45,172.8,5.78,172.82,6.63Zm25.4,8.84a30.39,30.39,0,0,1,5.35,10.35,31.89,31.89,0,0,1,1.15,6.37c.08,1-.27,1-1,1-1.87,0-3.75,0-5.62,0s-3.92,0-5.87,0c-.63,0-.88-.17-.9-.84a56.18,56.18,0,0,0-2-13.65c-.16-.59,0-.83.57-1a24.43,24.43,0,0,0,6.89-2.83C197.63,14.4,197.89,15.06,198.22,15.47Zm-2.58-2.88a24.58,24.58,0,0,1-6.71,2.8c-.61.19-.69-.31-.83-.68A31.3,31.3,0,0,0,182.49,5,29.36,29.36,0,0,1,195.64,12.59ZM175.35,36.78c0-.76.13-1.11,1-1.1,3.83,0,7.66,0,11.49,0,.62,0,1,0,1,.85a65.38,65.38,0,0,1-1.89,12.67c-.23.85-.49,1.17-1.4,1a54.13,54.13,0,0,0-9.41-1c-.74,0-.78-.39-.77-.95,0-2,0-3.91,0-5.87S175.39,38.65,175.35,36.78Zm0-16.07c0-.72.15-1,1-1a53.1,53.1,0,0,0,9.16-1c.83-.17,1.24,0,1.49,1a66,66,0,0,1,1.88,12.66c0,.57-.13.84-.76.83h-12c-.66,0-.74-.34-.73-.86,0-1.95,0-3.91,0-5.87S175.39,22.63,175.35,20.71Zm0-10.16c0-1.91,0-3.83,0-5.74,0-.75.17-.94.94-.69a11.51,11.51,0,0,1,5.27,4,27.28,27.28,0,0,1,3.92,7.06c.3.74.17.94-.64,1.08-2.79.49-5.6.66-8.41.9-.8.07-1.11-.17-1.09-1C175.4,14.3,175.36,12.42,175.36,10.55Zm1.14,54.16c-.83.33-1.2.25-1.16-.77.07-1.83,0-3.66,0-5.49s0-3.83,0-5.74c0-.76.21-1.06,1-1,2.85.28,5.71.39,8.54.93.78.15.86.42.59,1.07a24.25,24.25,0,0,1-5.61,8.89A10.64,10.64,0,0,1,176.5,64.71Zm5.87-.69c1-1.36,1.91-2.5,2.71-3.72a29.3,29.3,0,0,0,3-6c.19-.49.28-1,1-.71a24.1,24.1,0,0,1,6.51,2.8A31,31,0,0,1,182.37,64Zm22.36-27.7A30.44,30.44,0,0,1,198,53.67c-.47.61-.8.72-1.49.27a21.82,21.82,0,0,0-6.41-2.69c-.83-.22-.91-.55-.71-1.3a54.67,54.67,0,0,0,1.9-13.15c0-.87.26-1.13,1.13-1.12,3.79,0,7.58,0,11.36,0C204.25,35.71,205,35.48,204.73,36.32Z"/><path class="cls-1" d="M69,65.2h66.1c2,0,2.82.55,2.84,1.82S137,69,135,69H2.83c-1,0-1.94.13-2.54-.91a1.82,1.82,0,0,1,1.32-2.81A8.93,8.93,0,0,1,3,65.2Z"/><path class="cls-1" d="M279.18,69H213.31a9,9,0,0,1-1.37,0A1.78,1.78,0,0,1,210.32,67a1.71,1.71,0,0,1,1.56-1.8,6.51,6.51,0,0,1,1.25,0H345.36c1.93,0,2.85.59,2.86,1.84S347.29,69,345.29,69Z"/><path class="cls-1" d="M250.36,102.5Q247.23,92.26,244.1,82a2.25,2.25,0,0,0-2.47-1.8c-1.58,0-3.17,0-4.75,0A2.26,2.26,0,0,0,234.42,82c-.38,1.32-.8,2.63-1.2,3.94-2,6.44-3.93,12.88-5.93,19.31-.26.85-.21,1.21.8,1.16,1.33-.06,2.66,0,4,0a.9.9,0,0,0,1-.81c.44-1.73,1-3.43,1.4-5.17a1,1,0,0,1,1.11-.86c2.41,0,4.83,0,7.25,0a1,1,0,0,1,1.2.94c.43,1.69.9,3.37,1.37,5,.12.43.2.87.85.85,1.7,0,3.41,0,5.24,0C251.12,105,250.75,103.77,250.36,102.5Zm-8.79-7.37c-.79,0-1.58,0-2.57,0-.81-.16-2.18.49-2.74-.3s.35-1.86.59-2.82c.56-2.25,1.18-4.49,1.76-6.74.09-.37.21-.61.63-.62s.56.18.66.57c.79,3,1.6,6,2.41,9C242.49,94.9,242.25,95.16,241.57,95.13Z"/><path class="cls-1" d="M56.52,105.52Q52.85,93.61,49.19,81.7A2,2,0,0,0,47,80.2H42.39c-1.74,0-2.29.4-2.8,2Q37,90.57,34.45,98.92c-.75,2.46-1.48,4.92-2.25,7.51,1.75,0,3.37,0,5,0a1,1,0,0,0,1.19-.93c.42-1.66.91-3.29,1.32-4.94a1.09,1.09,0,0,1,1.29-1c1.54.06,3.08,0,4.62,0,3.44,0,3.43,0,4.33,3.33.3,1.12.36,2.57,1.09,3.24s2.31.17,3.5.24c.45,0,.92,0,1.37,0C56.64,106.48,56.71,106.14,56.52,105.52ZM46.58,95.14c-.71,0-1.42,0-2.12,0-3.23,0-3.23,0-2.39-3.12l1.73-6.5c.1-.38.05-.86.67-.87s.59.42.7.83c.74,2.85,1.46,5.71,2.29,8.54C47.75,95,47.47,95.19,46.58,95.14Z"/><path class="cls-1" d="M308,84.68c-1.45,0-2.91,0-4.37,0-1,0-1.88.31-2.16,1.47a2.72,2.72,0,0,0,1.15,3.14,35.17,35.17,0,0,0,4.56,1.7,16.4,16.4,0,0,1,5,2.25,5.43,5.43,0,0,1,1.75,2.23,10.52,10.52,0,0,1,0,8.13c-.92,2.24-3,2.74-5.09,3.06a36.86,36.86,0,0,1-11.9-.52c-.73-.12-1.13-.39-.86-1.24a5.64,5.64,0,0,0,.1-1.49c.07-1.74.15-1.82,1.92-1.65a73.47,73.47,0,0,0,8,.15c1.87,0,2.57-.6,2.78-2a2.64,2.64,0,0,0-2-3.16c-1.95-.72-3.92-1.38-5.87-2.09-4.54-1.65-5.79-4.77-5.23-9.27.43-3.53,1.87-4.83,5.5-5.36a34.31,34.31,0,0,1,11.65.51c.7.14.88.43.8,1.19-.32,3-.28,3-3.32,3-.79,0-1.58,0-2.38,0Z"/><path class="cls-2" d="M173.86,148.1H141.25a11.47,11.47,0,0,1-1.85-.17,1.65,1.65,0,0,1-1.38-1.82,1.58,1.58,0,0,1,1.35-1.7,9.06,9.06,0,0,1,1.73-.17q32.85,0,65.71,0a9.14,9.14,0,0,1,1.73.17,1.53,1.53,0,0,1,1.35,1.67,1.62,1.62,0,0,1-1.32,1.84,8.79,8.79,0,0,1-1.85.17Z"/><path class="cls-1" d="M113.56,95.7c0,3.21,0,6.41,0,9.61,0,.86-.21,1.19-1.11,1.14a33.51,33.51,0,0,0-3.75,0c-.92.06-1.08-.33-1.08-1.16,0-6.28,0-12.56,0-18.84,0-1.16-.21-1.62-1.48-1.54-1.78.12-3.57,0-5.36,0a1,1,0,0,1-.82-.22,1,1,0,0,1-.16-.78c.21-1.91-.34-2.84.23-3.5s2.24-.43,3.35-.24c0,0,5,0,16.72,0,.91,0,1.3.19,1.21,1.16a21,21,0,0,0,0,2.75c0,.66-.23.86-.87.85-1.91,0-3.83,0-5.74,0-.91,0-1.23.21-1.21,1.17C113.6,89.29,113.56,92.5,113.56,95.7Z"/><path class="cls-1" d="M166.9,91.1c0-3.28,0-6.57,0-9.86,0-.82.25-1.09,1.07-1a33.63,33.63,0,0,0,3.62,0c.9,0,1.12.29,1.11,1.14,0,5.74,0,11.48,0,17.23a8.86,8.86,0,0,0,.07,1.36c.2,1.4.62,1.77,2,1.77,2.66,0,5.33,0,8,0,.82,0,1.15.25,1.08,1.06,0,.33,0,.67,0,1-.11.77.54,1.74,0,2.25s-1.41.31-2.15.35a89.54,89.54,0,0,1-10.23.06c-2.87-.19-4.53-2.36-4.56-5.69S166.9,94.31,166.9,91.1Z"/><path class="cls-1" d="M143.59,132.75c-.07-.44-.05-1-.69-1a8.18,8.18,0,0,0-1,0c-1,.06-1.38-.38-1.34-1.34,0-.74,0-1.49,0-2.24,0-1.67,0-1.69,1.62-1.71.63,0,1-.1,1-.87s-.38-1-1-.85c-1.32.21-1.75-.33-1.62-1.63.09-1-.47-1.36-1.38-1.08-.76.23-.56.89-.51,1.36.1,1.13-.35,1.46-1.43,1.36s-2.08,0-3.12,0c-1.63-.05-2.23-.68-2.25-2.32s.55-2.38,2.24-2.45c1.28,0,2.58,0,3.87,0,.86,0,.7-.66.83-1.12s-.15-.57-.55-.61a19.44,19.44,0,0,0-6.09.07,2.8,2.8,0,0,0-1.83,1,4.35,4.35,0,0,0,1.55,6.37c-2.34.71-3.27,2.72-2.58,5.49a2.89,2.89,0,0,0,2.39,2.39c2.48.49,4.8.28,6.8-1.45a3.69,3.69,0,0,0,4.48,1.47C143.4,133.36,143.68,133.24,143.59,132.75Zm-5-3.5a1.61,1.61,0,0,1-.84,1.53,6.91,6.91,0,0,1-4.82.83,1.46,1.46,0,0,1-1.3-1.33c-.44-2.9.35-4,3.07-3.87.38,0,.75,0,1.13,0C138.64,126.42,138.61,126.42,138.58,129.25Z"/><path class="cls-1" d="M204.82,122.45c-.32-2-1.12-3.58-3.24-4.15a9,9,0,0,0-3.46-.33c-1.93.23-3.76.76-4.43,2.86a16,16,0,0,0,0,10c.69,2.06,2.47,2.7,4.46,2.79,2.33.1,4.64,0,6-2.39a5.05,5.05,0,0,0,.44-1.16,14.68,14.68,0,0,0,.49-4.39A11.8,11.8,0,0,0,204.82,122.45Zm-2.44,7c-.46,1.76-1.47,2.34-3.62,2.29a2.88,2.88,0,0,1-3.15-2.42,13.92,13.92,0,0,1-.29-3.47,12.68,12.68,0,0,1,.32-3.58c.46-1.6,1.51-2.31,3.4-2.31s2.92.71,3.34,2.35A14.16,14.16,0,0,1,202.38,129.41Z"/><path class="cls-1" d="M157.71,122.42c-.61-3.13-2-4.22-5.15-4.29-1.62,0-3.25.06-4.87,0-.85,0-1.16.25-1.14,1.14.06,2.16,0,4.32,0,6.48v6.73c0,.48,0,.9.67.93a45.62,45.62,0,0,0,5.48.18c3-.21,4.34-1.33,5-4.28A17.71,17.71,0,0,0,157.71,122.42Zm-2.42,7a2.73,2.73,0,0,1-2.78,2.24c-1,.05-1.92,0-2.87,0s-1-.35-1-1.06c0-1.62,0-3.24,0-4.87s0-3.16,0-4.74c0-.82.27-1.13,1.09-1.07s1.67,0,2.5,0a2.89,2.89,0,0,1,3.06,2.41A16,16,0,0,1,155.29,129.42Z"/><path class="cls-1" d="M123.69,126.29a2.88,2.88,0,0,0,2.49-2.69,7.35,7.35,0,0,0,0-2.34c-.36-2-1.3-3-3.3-3.07s-4.08,0-6.12,0c-.56,0-.84.22-.84.81,0,4.57,0,9.15,0,13.72,0,.9.62.71,1.12.71s1.14.2,1.11-.72,0-1.91,0-2.87c0-2.71,0-2.68,2.78-2.66a2.2,2.2,0,0,1,2.35,1.79c.23.88.47,1.77.71,2.65.54,2,.54,2,2.87,1.7C125.77,131,126.05,128.17,123.69,126.29Zm-1.33-1.13a14.92,14.92,0,0,1-1.5.07c-2.73,0-2.73,0-2.73-2.72s0-2.51,2.87-2.6c3.2-.11,3.38,2,2.87,4A1.62,1.62,0,0,1,122.36,125.16Z"/><path class="cls-1" d="M190.28,131.89a20.91,20.91,0,0,0-.71-2.51,4.22,4.22,0,0,0-2-3c2-.77,2.56-1.49,2.62-3.42,0-.46,0-.92,0-1.38-.1-2.07-1.16-3.28-3.24-3.38s-4.15,0-6.23,0c-.59,0-.79.25-.79.83,0,4.53,0,9.06,0,13.59,0,.95.55.82,1.14.83s1.17.07,1.11-.85,0-1.83,0-2.75c0-2.72,0-2.69,2.79-2.66a2.09,2.09,0,0,1,2.26,1.71,35.8,35.8,0,0,1,.94,3.48c.23,1.44,1.27,1.18,2.06,1C191.23,133.14,190.35,132.36,190.28,131.89Zm-3.52-6.84a17.44,17.44,0,0,1-4.21.15c-.47,0-.45-.4-.45-.73,0-.66,0-1.32,0-2,0-2.55,0-2.55,2.5-2.55h.5c2.86-.11,3.22,1.54,2.62,4.22A1.24,1.24,0,0,1,186.76,125.05Z"/><path class="cls-1" d="M217.11,123.79c0-1.58,0-3.16,0-4.74,0-.8.4-.9,1-.83s1.27-.3,1.23.72c-.11,3.61.29,7.23-.23,10.83-.33,2.35-1.35,3.39-3.63,3.81a9.2,9.2,0,0,1-3.47,0c-2.58-.52-3.71-1.92-3.84-5.05s0-6.32-.06-9.47c0-1,.58-.81,1.16-.83s1.12,0,1.1.87c-.05,2.74,0,5.49,0,8.23a12.47,12.47,0,0,0,0,1.5c.31,2.29,1.24,3,3.79,2.89,1.87-.08,2.78-1.07,2.91-3.17v-4.74Z"/><path class="cls-1" d="M174.74,132a7.25,7.25,0,0,1-4.61,1.67,3.73,3.73,0,0,1-3.71-2.45,15.6,15.6,0,0,1-.13-10.38c.69-2.13,2.56-2.69,4.55-2.89a19.79,19.79,0,0,1,4.48.24c.67.09.87.47.8,1.13s-.41.72-1,.68a35.86,35.86,0,0,0-3.74-.08c-2.05,0-2.91.83-3.26,2.87a17.89,17.89,0,0,0,0,6.32c.2,1.15.57,2.25,1.89,2.51a5,5,0,0,0,4.22-1.08c.29-.23.19-.62.19-.94,0-1.33.06-2.67,0-4,0-.93.44-1,1.14-1s1.11.15,1.09,1c-.06,2.2,0,4.41,0,6.61,0,.48.26,1.13-.68,1.15-.74,0-1.09-.24-1.07-1A1.88,1.88,0,0,0,174.74,132Z"/><path class="cls-1" d="M233.07,121.56c-.19-2.22-1.3-3.31-3.54-3.39-1.87-.07-3.74,0-5.62,0-.81,0-1.08.26-1.06,1.08.05,2.16,0,4.33,0,6.49s0,4.5,0,6.74c0,1,.47.94,1.15,1s1.17-.07,1.12-1c-.08-1.37,0-2.74,0-4.12,0-.74.24-.95,1-.79a11.81,11.81,0,0,0,3.36.1c2.38-.15,3.48-1.24,3.67-3.57A16.05,16.05,0,0,0,233.07,121.56Zm-2.59,3.33a1.57,1.57,0,0,1-1.24.75,8.22,8.22,0,0,1-1.12.07c-3,.06-3,.06-3-2.91s0-2.91,2.94-2.86c1,0,2.13,0,2.56,1.09A4.73,4.73,0,0,1,230.48,124.89Z"/><path class="cls-1" d="M145.87,103.82c-.08.72.33,1.89-.79,2.35a5.83,5.83,0,0,1-3.89,0,1,1,0,0,1-.64-.86,8.59,8.59,0,0,1,0-3.57c.27-1.27,1.67-1.12,3.85-1a1.46,1.46,0,0,1,1.47,1.66Z"/><path class="cls-1" d="M270.08,103.58c0-.41,0-.83,0-1.24a1.58,1.58,0,0,1,.12-.73c.85-1.44,2.28-.8,3.49-.9a1.4,1.4,0,0,1,1.69,1.11,8.12,8.12,0,0,1,.17,1.1c.11,3.88-.68,3.62-4.18,3.45a1.31,1.31,0,0,1-1.28-1.42c0-.46,0-.91,0-1.37Z"/><path class="cls-1" d="M80.67,103.57c0,2.63-.21,2.86-2.66,2.86s-2.8-.38-2.82-2.82.38-2.92,2.83-2.92S80.67,100.91,80.67,103.57Z"/><path class="cls-1" d="M208.4,103.53c0,2.7-.19,2.9-2.75,2.9-2.33,0-2.74-.43-2.73-2.9s.39-2.84,2.8-2.84S208.4,100.91,208.4,103.53Z"/></svg>